<svg xmlns="http://www.w3.org/2000/svg" viewBox="0 0 64 64" role="img" aria-label="Ceramiche Bressan C2">
  <rect width="64" height="64" rx="12" fill="#FFF9F0"/>
  <circle cx="32" cy="32" r="27" fill="#006B43"/>
  <circle cx="32" cy="32" r="22" fill="#D8A52B"/>
  <circle cx="32" cy="32" r="17" fill="#C31524"/>
  <circle cx="32" cy="32" r="12" fill="#E9444E"/>
  <path d="M21 46c3-12 5-21 5-28 0-2 2-3 5-3 8 0 12 3 12 8 0 4-2 6-6 8 5 1 8 4 8 8 0 6-5 10-14 10-5 0-8-1-10-3Z" fill="#FFF9F0"/>
  <path d="M29 19c-1 5-2 8-3 12h5c4 0 7-3 7-7 0-3-2-5-6-5h-3Zm-4 17c-1 4-2 7-3 9 2 1 5 1 8 1 6 0 10-3 10-7 0-3-3-5-8-5h-7Z" fill="#006B43"/>
  <path d="M23 18c-5 1-8 4-10 8" fill="none" stroke="#006B43" stroke-width="3" stroke-linecap="round"/>
  <path d="M41 16c5 2 8 5 10 10" fill="none" stroke="#006B43" stroke-width="3" stroke-linecap="round"/>
</svg>
